<svg viewBox="0 0 1024 1024" xmlns="http://www.w3.org/2000/svg">
  <path d="M510.4 449.3L383.8 322.6c-17.5-17.5-45.9-17.4-63.3 0-17.5 17.5-17.4 45.9 0 63.3l126.6 126.6-126.6 126.8c-17.5 17.5-17.4 45.9 0 63.3 17.5 17.5 45.9 17.4 63.3 0L510.4 576l126.7 126.6c17.5 17.5 45.9 17.4 63.3 0 17.5-17.5 17.4-45.9 0-63.3L573.7 512.6 700.3 386c17.5-17.5 17.4-45.9 0-63.3-17.5-17.5-45.9-17.4-63.3 0L510.4 449.3z m0 511.1c-247.3 0-447.7-200.5-447.7-447.7C62.7 265.3 263.2 65 510.4 65s447.7 200.5 447.7 447.7c0.1 247.2-200.3 447.7-447.7 447.7z" fill="currentColor"/>
</svg>
