<?xml version="1.0" standalone="no"?><!DOCTYPE svg PUBLIC "-//W3C//DTD SVG 1.1//EN" "http://www.w3.org/Graphics/SVG/1.1/DTD/svg11.dtd"><svg t="1782439444123" class="icon" viewBox="0 0 1024 1024" version="1.1" xmlns="http://www.w3.org/2000/svg" p-id="1697" xmlns:xlink="http://www.w3.org/1999/xlink" width="200" height="200"><path d="M443.093333 622.506667a35.84 35.84 0 0 0 50.773334 50.773333l135.68-135.68a36.266667 36.266667 0 0 0 0-51.2l-135.68-135.68a35.84 35.84 0 0 0-50.773334 50.773333l74.24 74.24H36.053333a35.84 35.84 0 0 0 0 72.106667h481.28z" fill="#5E5C5C" p-id="1698"></path><path d="M983.68 312.746667a512 512 0 0 0-878.933333-110.506667 35.84 35.84 0 0 0 57.173333 42.666667 443.733333 443.733333 0 0 1 151.893333-128 439.466667 439.466667 0 0 1 509.44 84.053333A440.32 440.32 0 0 1 682.88 917.333333a440.746667 440.746667 0 0 1-369.92-12.8 444.586667 444.586667 0 0 1-151.893333-128 35.84 35.84 0 0 0-57.173334 42.666667 516.266667 516.266667 0 0 0 176.64 147.2A512 512 0 0 0 1024.213333 512a506.026667 506.026667 0 0 0-40.533333-199.253333z" fill="#5E5C5C" p-id="1699"></path></svg>