<?xml version="1.0" standalone="no"?><!DOCTYPE svg PUBLIC "-//W3C//DTD SVG 1.1//EN" "http://www.w3.org/Graphics/SVG/1.1/DTD/svg11.dtd"><svg t="1783650897958" class="icon" viewBox="0 0 1024 1024" version="1.1" xmlns="http://www.w3.org/2000/svg" p-id="19349" xmlns:xlink="http://www.w3.org/1999/xlink" width="200" height="200"><path d="M512 1024c282.752 0 512-229.248 512-512S794.752 0 512 0 0 229.248 0 512s229.248 512 512 512z" fill="#0052FF" p-id="19350"></path><path d="M516.266667 361.813333c60.330667 0 108.117333 37.205333 126.293333 92.501334h121.429333C742.016 336.128 644.48 256 517.290667 256c-144.469333 0-257.28 109.653333-257.28 256.469333 0 146.858667 109.994667 255.530667 257.28 255.530667 124.330667 0 223.786667-80.085333 245.802666-199.253333H642.56c-17.237333 55.296-65.024 93.44-125.312 93.44-83.242667 0-141.568-63.914667-141.568-149.674667 0-86.784 57.429333-150.698667 140.629333-150.698667z" fill="#FFFFFF" p-id="19351"></path></svg>