<?xml version="1.0" standalone="no"?><!DOCTYPE svg PUBLIC "-//W3C//DTD SVG 1.1//EN" "http://www.w3.org/Graphics/SVG/1.1/DTD/svg11.dtd"><svg t="1778811925884" class="icon" viewBox="0 0 1024 1024" version="1.1" xmlns="http://www.w3.org/2000/svg" p-id="11995" xmlns:xlink="http://www.w3.org/1999/xlink" width="200" height="200"><path d="M1023.26325 264.58664c0 13.887144-5.847219 26.312484-15.348948 35.083312l-209.038064 214.15438c-8.770828 8.770828-19.734363 13.156242-31.4288 13.156242-17.541656 0-34.352409-10.963535-41.661432-28.505191-7.309023-17.541656-2.923609-38.006921 9.50173-51.163162l128.638808-131.562418C559.871178 342.793189 438.541393 483.126435 438.541393 799.60714c0 16.810753-8.770828 32.159702-22.657972 40.199628-13.887144 8.039926-30.697898 8.039926-44.585042 0a46.339207 46.339207 0 0 1-22.657972-40.199628c0-373.491086 160.067608-550.369448 523.326063-578.143737l-136.678734-140.333245a46.339207 46.339207 0 0 1-12.42534-45.315944c4.385414-16.810753 16.810753-29.236093 32.159702-32.890605 15.348949-4.385414 32.159702 0.730902 43.123237 12.42534l209.038064 214.15438c10.232633 8.770828 16.079851 21.196167 16.079851 35.083311z m-62.126697 331.098752v285.051906c0 78.937451-62.8576 143.256855-139.602343 143.256855H139.602343C62.8576 1024.725055 0 960.405651 0 881.4682V183.456483C0 103.78813 62.8576 40.199628 139.602343 40.199628h378.607403c24.850679 0 45.315944 20.465265 45.315944 46.777748-1.461805 25.581581-21.196167 46.777749-45.315944 46.046847H139.602343a50.43226 50.43226 0 0 0-49.701357 50.43226v698.011717c0 27.774288 21.92707 50.43226 49.701357 50.43226h681.931867c27.043386 0 49.701358-22.657972 49.701358-50.43226v-285.051905c0-25.581581 20.465265-46.777749 45.315943-46.777749 24.119777-0.730902 44.585042 20.465265 44.585042 46.046846z" fill="#1296db" p-id="11996"></path></svg>