<?xml version="1.0" standalone="no"?><!DOCTYPE svg PUBLIC "-//W3C//DTD SVG 1.1//EN" "http://www.w3.org/Graphics/SVG/1.1/DTD/svg11.dtd"><svg t="1778811903277" class="icon" viewBox="0 0 1031 1024" version="1.1" xmlns="http://www.w3.org/2000/svg" p-id="10109" xmlns:xlink="http://www.w3.org/1999/xlink" width="201.3671875" height="200"><path d="M1029.82242 15.390467c-273.887492 83.48543-361.833016 232.427458-353.666646 399.02141a70.607693 70.607693 0 0 0 2.51273 25.629838l145.738298-1.884547a24.373474 24.373474 0 0 1 23.870928 25.127293 24.059383 24.059383 0 0 1-5.025459 14.57383l-257.554751 299.266057a23.870928 23.870928 0 0 1-33.293663 4.208822 15.767376 15.767376 0 0 1-4.397276-3.957549L275.375454 479.177474a24.750383 24.750383 0 0 1 18.84547-40.454942l143.225569 1.884547c1.884547-7.601006 3.140912-15.26483 4.397276-22.991473C597.004802 21.67229 785.459498 1.633274 1029.82242 15.390467z m-179.660143 1008.106987H146.598078C21.589797 1031.412551 5.257056 937.31084 0.85978 877.445065V146.931845A131.918287 131.918287 0 0 1 116.445327 0.879455a121.113551 121.113551 0 0 1 30.152751 0c-122.495552 1.06791 289.59205 0 289.59205 0a36.560211 36.560211 0 0 1 5.653641 72.869149 42.465125 42.465125 0 0 1-5.653641 0H145.341714a59.426047 59.426047 0 0 0-72.869149 41.522852 65.833507 65.833507 0 0 0 0 31.409116v691.251825c-1.256365 55.091589 16.960923 109.743451 72.240966 110.811361h726.178762a70.105147 70.105147 0 0 0 72.86915-67.592418v-298.386602a36.183302 36.183302 0 0 1 38.947303-33.670572 36.999939 36.999939 0 0 1 33.921846 33.670572v293.172689a132.54647 132.54647 0 0 1-116.21373 146.05239 136.4412 136.4412 0 0 1-29.524569 0z" p-id="10110" fill="#1296db"></path></svg>