<?xml version="1.0" standalone="no"?><!DOCTYPE svg PUBLIC "-//W3C//DTD SVG 1.1//EN" "http://www.w3.org/Graphics/SVG/1.1/DTD/svg11.dtd"><svg t="1778812060715" class="icon" viewBox="0 0 1024 1024" version="1.1" xmlns="http://www.w3.org/2000/svg" p-id="21884" xmlns:xlink="http://www.w3.org/1999/xlink" width="200" height="200"><path d="M706.72 749.792l182.4-134.4 134.688-99.2v467.2z m182.592-403.2l134.208 98.816H1024v0.448l-134.688 99.2v-198.4zM41.024 1024l324.576-238.944 24.416-18.048h244.16l24.512 18.048L983.072 1024H41.024zM0 983.584V515.872l135.712 99.904 181.984 133.952z m135.04-637.216v197.312L1.44 444.736z" fill="#259AF3" p-id="21885"></path><path d="M320 0.576l-128 127.68h128V0.576z m0 0L375.232 0v185.088H190.208v400.672l173.856 128.736h293.056l173.632-127.712V0H375.296z m103.008 126.976h246.176v56.48h-246.176V127.552z m247.808 371.36H294.944v-57.92h431.168v57.92z m0-158.688H294.944V282.336h431.168v57.888z m0 0" fill="#7ADDFF" p-id="21886"></path></svg>