<?xml version="1.0" standalone="no"?><!DOCTYPE svg PUBLIC "-//W3C//DTD SVG 1.1//EN" "http://www.w3.org/Graphics/SVG/1.1/DTD/svg11.dtd"><svg t="1778811814675" class="icon" viewBox="0 0 1024 1024" version="1.1" xmlns="http://www.w3.org/2000/svg" p-id="5427" xmlns:xlink="http://www.w3.org/1999/xlink" width="200" height="200"><path d="M860.352 499.136a174.72 174.72 0 0 0-65.28-53.888C781.248 301.696 665.6 192.32 527.36 192a258.304 258.304 0 0 0-162.368 57.088 281.28 281.28 0 0 0-86.848 120.576C193.536 393.6 133.12 471.36 128.32 562.624c-4.864 91.328 46.912 175.552 128.448 209.088a37.12 37.12 0 0 0 13.824 2.56 39.04 39.04 0 0 0 38.08-32.832 40.512 40.512 0 0 0-24.192-44.928 127.168 127.168 0 0 1-57.792-47.424 136.512 136.512 0 0 1-12.16-126.528 127.232 127.232 0 0 1 96-78.272l14.592-1.664v-3.2l2.112-1.216 5.376-4.416a4.544 4.544 0 0 0 1.152-1.408l6.592-8.64 1.728-3.584V416.64c11.776-40.896 35.648-76.8 68.16-102.72a185.984 185.984 0 0 1 201.088-19.264c65.152 33.664 106.56 102.784 107.072 178.688 1.216 18.816 13.504 34.88 30.848 40.192 40.96 11.648 69.44 50.368 69.76 94.72a108.16 108.16 0 0 1-22.4 60.288 57.856 57.856 0 0 1-36.608 26.496 39.36 39.36 0 0 0-38.528 40.192c0 22.208 17.28 40.192 38.528 40.192a127.808 127.808 0 0 0 97.472-58.24c23.68-31.232 37.12-69.44 38.528-109.184a181.888 181.888 0 0 0-35.648-108.928z" fill="#1296db" fill-opacity=".88" p-id="5428"></path><path d="M657.344 659.968H361.344a38.72 38.72 0 0 0-25.408 9.792l-1.92 2.048a39.04 39.04 0 0 0-10.624 21.504 26.24 26.24 0 0 0 0 7.68c0 9.6 3.392 18.816 9.6 25.856l78.976 91.712a37.824 37.824 0 0 0 28.928 13.44 36.16 36.16 0 0 0 25.6-10.432 41.216 41.216 0 0 0 2.88-56.704l-21.568-24.512h209.344a39.36 39.36 0 0 0 38.528-40.192 39.36 39.36 0 0 0-38.528-40.192h0.192z m-50.24-190.592a37.952 37.952 0 0 0-26.56-13.44 37.568 37.568 0 0 0-27.968 10.24 41.28 41.28 0 0 0-3.072 56.896l20.992 24.512H361.344a39.808 39.808 0 0 0-27.2 11.648 41.472 41.472 0 0 0-8.64 44.032c5.952 15.168 20.096 24.96 35.84 24.96h296c8.96-0.064 17.6-3.328 24.448-9.28l2.944-2.624a42.048 42.048 0 0 0 10.752-21.504 55.36 55.36 0 0 0 0-7.68 42.88 42.88 0 0 0-9.6-26.112L607.104 469.376z" fill="#1296db" fill-opacity=".88" p-id="5429"></path></svg>